<svg xmlns="http://www.w3.org/2000/svg" width="24" height="24" viewBox="0 0 24 24">
  <path d="M16.8196399,9 L15.7703406,9 L15.3627722,6.0999999 L4.05086384,7.68978494 L5.41729065,17.4124169 L7,17.1899816 L7,18.2871135 L5.53102862,18.4935639 C4.98411867,18.5704271 4.47845063,18.1893789 4.40158745,17.642469 L3.00985644,7.73978827 C2.93299326,7.19287832 3.31404146,6.68721028 3.86095141,6.6103471 L15.2490342,5.00985644 C15.7959442,4.93299326 16.3016122,5.31404146 16.3784754,5.86095141 L16.8196399,9 L16.8196399,9 Z M8,9 L19,9 C19.5522847,9 20,9.44771525 20,10 L20,19 C20,19.5522847 19.5522847,20 19,20 L8,20 C7.44771525,20 7,19.5522847 7,19 L7,10 C7,9.44771525 7.44771525,9 8,9 Z M8,10 L8,19 L19,19 L19,10 L8,10 Z M11,12.5 C11,12.128309 11.3911563,11.8865611 11.7236068,12.0527864 L15.7236068,14.0527864 C16.0921311,14.2370485 16.0921311,14.7629515 15.7236068,14.9472136 L11.7236068,16.9472136 C11.3911563,17.1134389 11,16.871691 11,16.5 L11,12.5 Z M12,15.690983 L14.381966,14.5 L12,13.309017 L12,15.690983 Z"/>
</svg>
