<svg xmlns="http://www.w3.org/2000/svg" width="24" height="24" viewBox="0 0 24 24">
  <path d="M13.011,7.5342 C12.813,7.3352 12.493,7.3362 12.294,7.5312 C12.096,7.7282 12.095,8.0482 12.292,8.2462 L14.729,10.6882 C14.828,10.7882 14.958,10.8382 15.088,10.8382 C15.218,10.8382 15.346,10.7882 15.446,10.6902 C15.644,10.4942 15.645,10.1752 15.448,9.9762 L13.011,7.5342 Z M12.637,12.1762 L10.798,10.3432 C9.575,9.1242 9.575,7.1402 10.798,5.9222 C11.39,5.3332 12.176,5.0082 13.012,5.0082 C13.848,5.0082 14.635,5.3332 15.227,5.9222 L17.066,7.7552 C18.289,8.9732 18.289,10.9582 17.066,12.1772 C15.881,13.3562 13.821,13.3542 12.637,12.1762 Z M15.949,5.2122 C15.164,4.4302 14.121,4.0002 13.012,4.0002 C11.903,4.0002 10.86,4.4302 10.076,5.2122 C8.46,6.8222 8.46,9.4432 10.076,11.0542 L10.644,11.6192 L5,17.1032 L7.88,20.0002 L8.599,19.2882 L6.518,17.1032 L8.011,15.6342 L10.123,17.7512 L10.842,17.0392 L8.733,14.9242 L11.363,12.3362 L11.916,12.8872 C12.7,13.6682 13.743,14.0992 14.853,14.0992 C15.962,14.0992 17.004,13.6682 17.788,12.8882 C19.405,11.2762 19.405,8.6562 17.788,7.0452 L15.949,5.2122 Z"/>
</svg>
