<svg xmlns="http://www.w3.org/2000/svg" width="24" height="24" viewBox="0 0 24 24">
  <path d="M19,11 L19,18.007983 C19,19.1081436 18.1054862,20 17.0059397,20 L6.99406028,20 C5.8927712,20 5,19.0998238 5,18.007983 L5,11 L4.99079514,11 C3.89130934,11 3,10.1134452 3,8.99408095 L3,7.00591905 C3,5.89808055 3.89821238,5 4.99079514,5 L19.0092049,5 C20.1086907,5 21,5.88655484 21,7.00591905 L21,8.99408095 C21,10.1019194 20.1017876,11 19.0092049,11 L19,11 Z M6,11 L6,18.007983 C6,18.5508275 6.44833984,19 6.99406028,19 L17.0059397,19 C17.5541676,19 18,18.5548931 18,18.007983 L18,11 L6,11 Z M4,7.00591905 L4,8.99408095 C4,9.55798212 4.44043326,10 4.99079514,10 L19.0092049,10 C19.550725,10 20,9.54839356 20,8.99408095 L20,7.00591905 C20,6.44201788 19.5595667,6 19.0092049,6 L4.99079514,6 C4.44927499,6 4,6.45160644 4,7.00591905 Z M9,13 L15,13 L15,14 L9,14 L9,13 Z M10,15 L14,15 L14,16 L10,16 L10,15 Z"/>
</svg>
