<svg xmlns="http://www.w3.org/2000/svg" width="24" height="24" viewBox="0 0 24 24">
  <path d="M18.4744375,11.210225 L17.7701116,10.505899 L19.1183419,9.15766874 C20.2991296,7.97688101 20.2991296,6.06244584 19.1183419,4.88165811 C17.9375542,3.70087038 16.023119,3.70087038 14.8423313,4.88165811 L4.88165811,14.8423313 C3.70087038,16.023119 3.70087038,17.9375542 4.88165811,19.1183419 C6.06244584,20.2991296 7.97688101,20.2991296 9.15766874,19.1183419 L15.3797928,12.8962178 C15.8733885,12.4026221 15.873918,11.6025088 15.3809759,11.1082602 C14.8893899,10.6153713 14.0913153,10.6143151 13.5984264,11.1059012 L9.01179805,15.6925279 L8.3074721,14.9882019 L12.8929201,10.402754 C13.777425,9.52058433 15.206174,9.52247518 16.0862334,10.404867 C16.9672853,11.288254 16.966339,12.7183235 16.0841188,13.6005438 L9.86199469,19.8226678 C8.29221848,21.3924441 5.74710837,21.3924441 4.17733216,19.8226678 C2.60755595,18.2528916 2.60755595,15.7077815 4.17733216,14.1380053 L14.1380053,4.17733216 C15.7077815,2.60755595 18.2528916,2.60755595 19.8226678,4.17733216 C21.3924441,5.74710837 21.3924441,8.29221848 19.8226678,9.86199469 L18.4744375,11.210225 Z"/>
</svg>
