<svg xmlns="http://www.w3.org/2000/svg" width="24" height="24" viewBox="0 0 24 24">
  <path fill-rule="evenodd" d="M12,16.2857143 C9.63306536,16.2857143 7.71428571,14.3669346 7.71428571,12 C7.71428571,9.63306536 9.63306536,7.71428571 12,7.71428571 C14.3669346,7.71428571 16.2857143,9.63306536 16.2857143,12 C16.2857143,14.3669346 14.3669346,16.2857143 12,16.2857143 Z M11.5238095,2 L12.4761905,2 L12.4761905,5.80952381 L11.5238095,5.80952381 L11.5238095,2 Z M18.7343503,4.59221467 L19.4077853,5.2656497 L16.7140452,7.95938982 L16.0406102,7.28595479 L18.7343503,4.59221467 Z M22,11.5238095 L22,12.4761905 L18.1904762,12.4761905 L18.1904762,11.5238095 L22,11.5238095 Z M19.4077853,18.7343503 L18.7343503,19.4077853 L16.0406102,16.7140452 L16.7140452,16.0406102 L19.4077853,18.7343503 Z M12.4761905,22 L11.5238095,22 L11.5238095,18.1904762 L12.4761905,18.1904762 L12.4761905,22 Z M5.2656497,19.4077853 L4.59221467,18.7343503 L7.28595479,16.0406102 L7.95938982,16.7140452 L5.2656497,19.4077853 Z M2,12.4761905 L2,11.5238095 L5.80952381,11.5238095 L5.80952381,12.4761905 L2,12.4761905 Z M4.59221467,5.2656497 L5.2656497,4.59221467 L7.95938982,7.28595479 L7.28595479,7.95938982 L4.59221467,5.2656497 Z"/>
</svg>
