<svg xmlns="http://www.w3.org/2000/svg" width="24" height="24" viewBox="0 0 24 24">
  <path d="M7,6.01027255 L7,6 L21.162865,6 L18.8771507,14 L9.69070884,14 L10.3642509,16 L19,16 L19,17 L9.64583728,17 L5.60458477,5 L2,5 L2,4 L6.32299842,4 L7,6.01027255 Z M7.33331154,7 L9.3539378,13 L18.1228493,13 L19.837135,7 L7.33331154,7 Z M17.5,19 C17.2238576,19 17,19.2238576 17,19.5 C17,19.7761424 17.2238576,20 17.5,20 C17.7761424,20 18,19.7761424 18,19.5 C18,19.2238576 17.7761424,19 17.5,19 Z M17.5,18 C18.3284271,18 19,18.6715729 19,19.5 C19,20.3284271 18.3284271,21 17.5,21 C16.6715729,21 16,20.3284271 16,19.5 C16,18.6715729 16.6715729,18 17.5,18 Z M10.5,19 C10.2238576,19 10,19.2238576 10,19.5 C10,19.7761424 10.2238576,20 10.5,20 C10.7761424,20 11,19.7761424 11,19.5 C11,19.2238576 10.7761424,19 10.5,19 Z M10.5,18 C11.3284271,18 12,18.6715729 12,19.5 C12,20.3284271 11.3284271,21 10.5,21 C9.67157288,21 9,20.3284271 9,19.5 C9,18.6715729 9.67157288,18 10.5,18 Z"/>
</svg>
