<svg xmlns="http://www.w3.org/2000/svg" width="24" height="24" viewBox="0 0 24 24">
  <path d="M9,13 L16,13 L16,12 L9,12 L9,13 Z M9,11 L13,11 L13,10 L9,10 L9,11 Z M19,15 C19,15.553 18.553,16 18,16 L14.3599997,16 L10,18.621 L10,16 L7,16 C6.447,16 6,15.553 6,15 L6,8 C6,7.447 6.447,7 7,7 L18,7 C18.553,7 19,7.447 19,8 L19,15 Z M7,6 C5.896,6 5,6.896 5,8 L5,15 C5,16.104 5.896,17 7,17 L9,17 L9,19.5 C9,19.68 9.097,19.846 9.253,19.935 C9.33,19.979 9.414,20 9.5,20 C9.588,20 9.677,19.977 9.756,19.93 L14.6400003,17 L18,17 C19.104,17 20,16.104 20,15 L20,8 C20,6.896 19.104,6 18,6 L7,6 Z"/>
</svg>
