<svg xmlns="http://www.w3.org/2000/svg" width="24" height="24" viewBox="0 0 24 24">
  <path d="M20,13 L21.1,13 L18.8,10.7 L19.5,10 L23,13.5 L19.5,17 L18.8,16.3 L21.1,14 L20,14 C17.790861,14 16,15.790861 16,18 L16,21 L15,21 L15,18 C15,15.2385763 17.2385763,13 20,13 Z M7,9 L16,9 L16,10 L7,10 L7,9 Z M13,12 L13,13 L7,13 L7,12 L13,12 Z M4,16 C4,16.6 4.4,17 5,17 L12.8,17 L12.8,18 L5,18 C3.9,18 3,17.1 3,16 L3,6 C3,4.9 3.9,4 5,4 L18,4 C19.1,4 20,4.9 20,6 L20,8.4 L19,8.4 L19,6 C19,5.4 18.6,5 18,5 L5,5 C4.4,5 4,5.4 4,6 L4,16 Z"/>
</svg>
