<svg xmlns="http://www.w3.org/2000/svg" width="24" height="24" viewBox="0 0 24 24">
  <path d="M7,13.81 C7,16.687 9.519,19.117 12.5,19.117 C15.481,19.117 18,16.686 18,13.81 C18,9.39 12.562,5.278 12.508,5.24 C12.438,5.278 7,9.388 7,13.81 Z M6,13.809 C6,8.9 11.849,4.47 11.908,4.425 L12.5,4 L13.092,4.425 C13.151,4.468 19,8.898 19,13.81 C19,17.23 16.023,20.117 12.5,20.117 C8.977,20.116 6,17.228 6,13.809 Z M13,16 C14.603888,15.9346596 15.9965099,14.6177146 16,13.0125 C16,11.4025 14.595,10.092 13,10.025 L13,16 Z M15,13.0125 C15,13.6975 14.53,14.302 14,14.659 L14,11.366 C14.53,11.724 15,12.3285 15,13.0125 Z"/>
</svg>
