<svg xmlns="http://www.w3.org/2000/svg" width="24" height="24" viewBox="0 0 24 24">
  <path d="M12,17 C13.3062188,17 14.4174579,17.8348076 14.8292943,19 L19,19 C19.5522847,19 20,18.5522847 20,18 L20,6 C20,5.44771525 19.5522847,5 19,5 L14.8292943,5 C14.4174579,6.16519237 13.3062188,7 12,7 C10.6937812,7 9.58254212,6.16519237 9.17070571,5 L5,5 C4.44771525,5 4,5.44771525 4,6 L4,18 C4,18.5522847 4.44771525,19 5,19 L9.17070571,19 C9.58254212,17.8348076 10.6937812,17 12,17 Z M10,20 L5,20 C3.8954305,20 3,19.1045695 3,18 L3,6 C3,4.8954305 3.8954305,4 5,4 L10,4 C10,5.1045695 10.8954305,6 12,6 C13.1045695,6 14,5.1045695 14,4 L19,4 C20.1045695,4 21,4.8954305 21,6 L21,18 C21,19.1045695 20.1045695,20 19,20 L14,20 C14,18.8954305 13.1045695,18 12,18 C10.8954305,18 10,18.8954305 10,20 Z M8,11 C8.55228475,11 9,10.5522847 9,10 C9,9.44771525 8.55228475,9 8,9 C7.44771525,9 7,9.44771525 7,10 C7,10.5522847 7.44771525,11 8,11 Z M8,12 C6.8954305,12 6,11.1045695 6,10 C6,8.8954305 6.8954305,8 8,8 C9.1045695,8 10,8.8954305 10,10 C10,11.1045695 9.1045695,12 8,12 Z M16,15 C16.5522847,15 17,14.5522847 17,14 C17,13.4477153 16.5522847,13 16,13 C15.4477153,13 15,13.4477153 15,14 C15,14.5522847 15.4477153,15 16,15 Z M16,16 C14.8954305,16 14,15.1045695 14,14 C14,12.8954305 14.8954305,12 16,12 C17.1045695,12 18,12.8954305 18,14 C18,15.1045695 17.1045695,16 16,16 Z M7.5,17.2071068 L6.79289322,16.5 L16.5,6.79289322 L17.2071068,7.5 L7.5,17.2071068 Z"/>
</svg>
