<svg xmlns="http://www.w3.org/2000/svg" width="24" height="24" viewBox="0 0 24 24">
  <path d="M17,5 L19,5 C19.5522847,5 20,5.44771525 20,6 L20,11 L19,11 L19,10 L5,10 L5,19 L10,19 L10,20 L5,20 C4.44771525,20 4,19.5522847 4,19 L4,6 C4,5.44771525 4.44771525,5 5,5 L7,5 L7,4 L8,4 L8,5 L16,5 L16,4 L17,4 L17,5 Z M17,6 L17,7 L16,7 L16,6 L8,6 L8,7 L7,7 L7,6 L5,6 L5,9 L19,9 L19,6 L17,6 Z M16.5,22.25 C19.1233526,22.25 21.25,20.1233526 21.25,17.5 C21.25,14.8766474 19.1233526,12.75 16.5,12.75 C13.8766474,12.75 11.75,14.8766474 11.75,17.5 C11.75,20.1233526 13.8766474,22.25 16.5,22.25 Z M16.5,23 C13.4624339,23 11,20.5375661 11,17.5 C11,14.4624339 13.4624339,12 16.5,12 C19.5375661,12 22,14.4624339 22,17.5 C22,20.5375661 19.5375661,23 16.5,23 Z M16,15 L17,15 L17,18 L19,18 L19,19.0041055 L17,19 L16,19 L16,15 Z"/>
</svg>
