<svg xmlns="http://www.w3.org/2000/svg" width="24" height="24" viewBox="0 0 24 24">
  <path d="M19,6 L17,6 L17,7 L16,7 L16,6 L8,6 L8,7 L7,7 L7,6 L5,6 L5,9 L19,9 L19,6 Z M19,10 L5,10 L5,19 L19,19 L19,10 Z M17,5 L19,5 C19.5522847,5 20,5.44771525 20,6 L20,19 C20,19.5522847 19.5522847,20 19,20 L5,20 C4.44771525,20 4,19.5522847 4,19 L4,6 C4,5.44771525 4.44771525,5 5,5 L7,5 L7,4 L8,4 L8,5 L16,5 L16,4 L17,4 L17,5 Z M15,11.2928932 L15.7071068,12 L11,16.7071068 L7.99907722,13.706184 L8.71121941,13.0041126 L11,15.2928932 L15,11.2928932 Z"/>
</svg>
