<svg xmlns="http://www.w3.org/2000/svg" width="24" height="24" viewBox="0 0 24 24">
  <path d="M17,7 L17,16 C17,17.6568542 15.6568542,19 14,19 L9,19 C7.34314575,19 6,17.6568542 6,16 L6,7 L5,7 L5,6 L18,6 L18,7 L17,7 L17,7 Z M9,9 L10,9 L10,15 L9,15 L9,9 Z M11,9 L12,9 L12,15 L11,15 L11,9 Z M13,9 L14,9 L14,15 L13,15 L13,9 Z M7,16 C7,17.1045695 7.8954305,18 9,18 L14,18 C15.1045695,18 16,17.1045695 16,16 L16,7 L7,7 L7,16 Z M13,6 L13,5 L10,5 L10,6 L9,6 L9,5 C9,4.44771525 9.44771525,4 10,4 L13,4 C13.5522847,4 14,4.44771525 14,5 L14,6 L13,6 Z"/>
</svg>
