<svg xmlns="http://www.w3.org/2000/svg" width="24" height="24" viewBox="0 0 24 24">
  <path d="M3,20 L18,20 L18,21 L3,21 L3,20 Z M6,11 L5,11 L5,4 C5,3.44771525 5.44771525,3 6,3 L15,3 L19,7 L19,20 C19,20.5522847 18.5522847,21 18,21 L18,8 L14,8 L14,4 L6,4 L6,11 Z M15,4.5 L15,7 L17.5,7 L15,4.5 Z M3,17 L8.5,17 C8.77614237,17 9,17.2238576 9,17.5 C9,17.7761424 8.77614237,18 8.5,18 L3,18 L3,17 Z M3,14 L6.5,14 C6.77614237,14 7,14.2238576 7,14.5 C7,14.7761424 6.77614237,15 6.5,15 L3,15 L3,14 Z"/>
</svg>
