<svg xmlns="http://www.w3.org/2000/svg" width="24" height="24" viewBox="0 0 24 24">
  <path d="M7,8 L10.0010618,8 L10.0010618,15.00153 L15,15.00153 L15,18 C15,18.5522847 14.5522847,19 14,19 L7,19 C6.44771525,19 6,18.5522847 6,18 L6,9 C6,8.44771525 6.44771525,8 7,8 Z M9,9 L7,9 L7,18 L14,18 L14,15.996751 L9.99999997,15.997798 C9.4477153,15.9982043 8.99988287,15.5506063 8.9997383,14.9983216 L9,9 Z M10,5 L14,5 L14,9 L18,9 L18,15 C18,15.5522847 17.5522847,16 17,16 L10,16 C9.44771525,16 9,15.5522847 9,15 L9,6 C9,5.44771525 9.44771525,5 10,5 Z M13,6 L10,6 L10,15 L17,15 L17,10 L14,10 C13.4477153,10 13,9.55228475 13,9 L13,6 Z M13,5 L14,5 L18,9 L18,10 L14,10 C13.4477153,10 13,9.55228475 13,9 L13,5 Z M14,6.41421356 L14,9 L16.5857864,9 L14,6.41421356 Z"/>
</svg>
