<svg xmlns="http://www.w3.org/2000/svg" width="24" height="24" viewBox="0 0 24 24">
  <path d="M18.7,8.62387506 L17.306,10.0198751 L13.97,6.67887506 L15.364,5.28287506 C15.801,4.84687506 16.561,4.84587506 16.998,5.28287506 L18.7,6.98687506 C19.15,7.43787506 19.15,8.17287506 18.7,8.62387506 L18.7,8.62387506 Z M10.973,16.3598751 L9.645,15.0298751 L13.155,11.5168751 L12.474,10.8348751 L8.965,14.3488751 L7.637,13.0198751 L13.289,7.36087506 L16.625,10.7018751 L10.973,16.3598751 Z M6.426,17.5738751 L7.254,13.9988751 L9.995,16.7438751 L6.426,17.5738751 Z M19.381,6.30587506 L17.679,4.60187506 C16.878,3.79887506 15.481,3.79987506 14.682,4.60187506 L6.512,12.7818751 L5,18.9998751 L11.211,17.4858751 L19.381,9.30587506 C20.207,8.47787506 20.207,7.13287506 19.381,6.30587506 L19.381,6.30587506 Z"/>
</svg>
