<svg xmlns="http://www.w3.org/2000/svg" width="24" height="24" viewBox="0 0 24 24">
  <path d="M19,18 L3,18 L3,17 L4,17 L4,16.998 L5,16.998 L5,17 L19,17 L19,7.65853889 L12.9761871,12.8218071 C12.4144525,13.3032939 11.5855475,13.3032939 11.0238129,12.8218071 L5,7.65853889 L5,7.66666667 L4.01711053,6.81482912 C4.10394977,6.35101323 4.51098312,6 5,6 L19,6 C19.5522847,6 20,6.44771525 20,7 L20,17 C20,17.5522847 19.5522847,18 19,18 Z M5.76829537,7 L11.6746043,12.0625505 C11.8618492,12.2230461 12.1381508,12.2230461 12.3253957,12.0625505 L18.2317046,7 L5.76829537,7 Z M3,11 L6.5,11 C6.77614237,11 7,11.2238576 7,11.5 C7,11.7761424 6.77614237,12 6.5,12 L3,12 L3,11 Z M3,14 L8.5,14 C8.77614237,14 9,14.2238576 9,14.5 C9,14.7761424 8.77614237,15 8.5,15 L3,15 L3,14 Z"/>
</svg>
