<svg xmlns="http://www.w3.org/2000/svg" width="24" height="24" viewBox="0 0 24 24">
  <path d="M18.2928932,18 L14.6661558,14.3732625 L12.9761871,15.8218071 C12.4144525,16.3032939 11.5855475,16.3032939 11.0238129,15.8218071 L9.33384425,14.3732625 L5.70710678,18 L18.2928932,18 Z M19,17.2928932 L19,10.6585389 L15.4276554,13.7205486 L19,17.2928932 Z M5,17.2928932 L8.57234464,13.7205486 L5,10.6585389 L5,17.2928932 Z M5.09041571,9.42025963 L11.6746043,15.0625505 C11.8618492,15.2230461 12.1381508,15.2230461 12.3253957,15.0625505 L18.9095841,9.42025943 L12.3292523,3.61686399 C12.1407393,3.45191512 11.8592607,3.45191512 11.6707477,3.61686399 L5.09041571,9.42025963 Z M20,18 C20,18.5522847 19.5522847,19 19,19 L5,19 C4.44771525,19 4,18.5522847 4,18 L4,9.45376823 C4,9.16540564 4.12448043,8.89107962 4.34149539,8.70119153 L11.0122431,2.8642873 C11.5777821,2.36944069 12.4222179,2.36944069 12.9877569,2.8642873 L19.6585046,8.70119153 C19.8755196,8.89107962 20,9.16540564 20,9.45376823 L20,18 Z"/>
</svg>
