<svg xmlns="http://www.w3.org/2000/svg" width="24" height="24" viewBox="0 0 24 24">
  <path d="M5.76829537,8 L11.6746043,13.0625505 C11.8618492,13.2230461 12.1381508,13.2230461 12.3253957,13.0625505 L18.2317046,8 L5.76829537,8 Z M19,8.65853889 L12.9761871,13.8218071 C12.4144525,14.3032939 11.5855475,14.3032939 11.0238129,13.8218071 L5,8.65853889 L5,18 L19,18 L19,8.65853889 Z M5,7 L19,7 C19.5522847,7 20,7.44771525 20,8 L20,18 C20,18.5522847 19.5522847,19 19,19 L5,19 C4.44771525,19 4,18.5522847 4,18 L4,8 C4,7.44771525 4.44771525,7 5,7 Z"/>
</svg>
