<svg xmlns="http://www.w3.org/2000/svg" width="24" height="24" viewBox="0 0 24 24">
  <path d="M13.565038,11 L14,11 L14,11.9442532 L12.9761871,12.8218071 C12.4144525,13.3032939 11.5855475,13.3032939 11.0238129,12.8218071 L5,7.65853889 L5,17 L19,17 L19,12 L20,12 L20,17 C20,17.5522847 19.5522847,18 19,18 L5,18 C4.44771525,18 4,17.5522847 4,17 L4,7 C4,6.44771525 4.44771525,6 5,6 L12,6 L12,7 L5.76829537,7 L11.6746043,12.0625505 C11.8618492,12.2230461 12.1381508,12.2230461 12.3253957,12.0625505 L13.565038,11 Z M17.5,10.25 C19.5710678,10.25 21.25,8.57106781 21.25,6.5 C21.25,4.42893219 19.5710678,2.75 17.5,2.75 C15.4289322,2.75 13.75,4.42893219 13.75,6.5 C13.75,8.57106781 15.4289322,10.25 17.5,10.25 Z M17.5,11 C15.0147186,11 13,8.98528137 13,6.5 C13,4.01471863 15.0147186,2 17.5,2 C19.9852814,2 22,4.01471863 22,6.5 C22,8.98528137 19.9852814,11 17.5,11 Z M17,3.99999996 L18,3.99999996 L18,7 L17,7 L17,3.99999996 Z M17,8 L18,8 L18,9 L17,9 L17,8 Z"/>
</svg>
