<svg xmlns="http://www.w3.org/2000/svg" width="24" height="24" viewBox="0 0 24 24">
  <path d="M5.76829537,7 L11.6746043,12.0625505 C11.8618492,12.2230461 12.1381508,12.2230461 12.3253957,12.0625505 L18.2317046,7 L5.76829537,7 Z M19,7.65853889 L12.9761871,12.8218071 C12.4144525,13.3032939 11.5855475,13.3032939 11.0238129,12.8218071 L5,7.65853889 L5,17 L19,17 L19,7.65853889 Z M5,6 L19,6 C19.5522847,6 20,6.44771525 20,7 L20,17 C20,17.5522847 19.5522847,18 19,18 L5,18 C4.44771525,18 4,17.5522847 4,17 L4,7 C4,6.44771525 4.44771525,6 5,6 Z"/>
</svg>
