<svg xmlns="http://www.w3.org/2000/svg" width="24" height="24" viewBox="0 0 24 24">
  <path d="M16,16 L16,7 L7,7 L7,16 C7,17.104 7.896,18 9,18 L14,18 C15.104,18 16,17.104 16,16 Z M10,5 L10,6 L13,6 L13,5 L10,5 Z M14,6 L18,6 L18,7 L17,7 L17,16 C17,17.657 15.657,19 14,19 L9,19 C7.343,19 6,17.657 6,16 L6,7 L5,7 L5,6 L9,6 L9,5 C9,4.44771525 9.44771525,4 10,4 L13,4 C13.5522847,4 14,4.44771525 14,5 L14,6 Z M11.5020149,13.2122708 L8.71428571,16 L8,15.2857143 L10.7877291,12.4979851 L8,9.71025598 L8.71025598,9 L11.4979851,11.7877292 L14.2857143,9 L15,9.71428571 L12.2122709,12.5020149 L14.9717919,15.2615359 L14.2615359,15.9717919 L11.5020149,13.2122708 Z"/>
</svg>
