<svg xmlns="http://www.w3.org/2000/svg" width="24" height="24" viewBox="0 0 24 24">
  <path d="M9,22 C5.13400675,22 2,18.8659932 2,15 C2,11.1340068 5.13400675,8 9,8 C12.8659932,8 16,11.1340068 16,15 C16,18.8659932 12.8659932,22 9,22 Z M9,21 C12.3137085,21 15,18.3137085 15,15 C15,11.6862915 12.3137085,9 9,9 C5.6862915,9 3,11.6862915 3,15 C3,18.3137085 5.6862915,21 9,21 Z M15,22 C11.1340068,22 8,18.8659932 8,15 C8,11.1340068 11.1340068,8 15,8 C18.8659932,8 22,11.1340068 22,15 C22,18.8659932 18.8659932,22 15,22 Z M15,21 C18.3137085,21 21,18.3137085 21,15 C21,11.6862915 18.3137085,9 15,9 C11.6862915,9 9,11.6862915 9,15 C9,18.3137085 11.6862915,21 15,21 Z M12,17 C8.13400675,17 5,13.8659932 5,10 C5,6.13400675 8.13400675,3 12,3 C15.8659932,3 19,6.13400675 19,10 C19,13.8659932 15.8659932,17 12,17 Z M12,16 C15.3137085,16 18,13.3137085 18,10 C18,6.6862915 15.3137085,4 12,4 C8.6862915,4 6,6.6862915 6,10 C6,13.3137085 8.6862915,16 12,16 Z"/>
</svg>
