<svg xmlns="http://www.w3.org/2000/svg" width="24" height="24" viewBox="0 0 24 24">
  <path fill-rule="evenodd" d="M7,16 C7,15.4477153 7.44771525,15 8,15 C8.55228475,15 9,15.4477153 9,16 L21,16 L21,17 L9,17 C9,17.5522847 8.55228475,18 8,18 C7.44771525,18 7,17.5522847 7,17 L4,17 L4,16 L7,16 Z M13,11 C13,10.4477153 13.4477153,10 14,10 C14.5522847,10 15,10.4477153 15,11 L21,11 L21,12 L15,12 C15,12.5522847 14.5522847,13 14,13 C13.4477153,13 13,12.5522847 13,12 L4,12 L4,11 L13,11 Z M7,6 C7,5.44771525 7.44771525,5 8,5 C8.55228475,5 9,5.44771525 9,6 L21,6 L21,7 L9,7 C9,7.55228475 8.55228475,8 8,8 C7.44771525,8 7,7.55228475 7,7 L4,7 L4,6 L7,6 Z"/>
</svg>
