<svg xmlns="http://www.w3.org/2000/svg" width="24" height="24" viewBox="0 0 24 24">
  <path d="M12,10 L6,10 L6,12 L12,12 L12,10 Z M13,10 L13,12 L19,12 L19,10 L13,10 Z M12,13 L7,13 L7,18 C7,18.5522847 7.44771525,19 8,19 L12,19 L12,13 Z M13,13 L13,19 L17,19 C17.5522847,19 18,18.5522847 18,18 L18,13 L13,13 Z M19,13 L19,18 L19,18 C19,19.1045695 18.1045695,20 17,20 L8,20 C6.8954305,20 6,19.1045695 6,18 L6,13 C5.44771525,13 5,12.5522847 5,12 L5,10 C5,9.44771525 5.44771525,9 6,9 L6,9 L19,9 C19.5522847,9 20,9.44771525 20,10 L20,12 C20,12.5522847 19.5522847,13 19,13 Z M15.3,9 L9.74500132,9 C8.74500132,8.5 8,7.5 7.7,6.6 C7.5,6 7.6,5.3 8,4.8 C8.57683395,4.02985964 9.87725106,3.74821239 10.7,4.4 C11.5227489,5.05178761 12.1,6.6 12.4,7.7 C12.8,6.3 13.6,5.4 14.6,5.1 C15.5,4.8 16.4,5.2 16.8,6 C17.1,6.6 17,7.2 16.6,7.8 C16.3,8.2 15.8,8.7 15.3,9 Z M14.9,6.1 C14.2,6.3 13.4,7.5 13.1,8.7 C14.4,8.7 15.3284097,7.90399894 15.6,7.5 C15.8715903,7.09600106 15.9,6.7 15.8,6.5 C15.7,6.3 15.3247815,5.94623941 14.9,6.1 Z M8.73920816,6.69935117 C8.9705045,7.175384 9.98589778,8.52227887 11.8,8.7 C11.5,7.4 10.8,5.7 10.2,5.2 C9.7,4.8 9.08337195,4.95456502 8.80230403,5.31024894 C8.50230403,5.71024894 8.50791181,6.22331833 8.73920816,6.69935117 Z"/>
</svg>
