<svg xmlns="http://www.w3.org/2000/svg" width="24" height="24" viewBox="0 0 24 24">
  <path d="M12,3 C16.971,3 21,7.029 21,12 C21,16.971 16.971,21 12,21 C7.029,21 3,16.971 3,12 C3,7.029 7.029,3 12,3 Z M12,20 C16.411,20 20,16.411 20,12 C20,7.589 16.411,4 12,4 C7.589,4 4,7.589 4,12 C4,16.411 7.589,20 12,20 Z M10,11 L9,11 C9,8.12654855 10.2673671,7 12.5,7 C14.6811195,7 16,8.02579598 16,10.5 C16,11.7556593 15.5285214,12.3319109 14.2773501,13.1660251 C13.2785214,13.8319109 13,14.172326 13,15 L12,15 C12,13.7443407 12.4714786,13.1680891 13.7226499,12.3339749 C14.7214786,11.6680891 15,11.327674 15,10.5 C15,8.64087069 14.1760234,8 12.5,8 C10.7951329,8 10,8.70678478 10,11 Z M12,16 L13,16 L13,18 L12,18 L12,16 Z"/>
</svg>
