<svg xmlns="http://www.w3.org/2000/svg" width="24" height="24" viewBox="0 0 24 24">
  <path d="M21.007983,7 L2.99201702,7 C2.45014743,7 2,7.45127322 2,8.00276013 L2,15.9972399 C2,16.5540542 2.444032,17 2.99201702,17 L21.007983,17 C21.5498526,17 22,16.5487268 22,15.9972399 L22,8.00276013 C22,7.44594575 21.555968,7 21.007983,7 Z M21.007983,6 C22.1081436,6 23,6.89354265 23,8.00276013 L23,15.9972399 C23,17.1033337 22.0998238,18 21.007983,18 L2.99201702,18 C1.8918564,18 1,17.1064574 1,15.9972399 L1,8.00276013 C1,6.89666625 1.90017617,6 2.99201702,6 L21.007983,6 Z"/>
</svg>
