<svg xmlns="http://www.w3.org/2000/svg" width="24" height="24" viewBox="0 0 24 24">
  <path d="M5,5 L19,5 C19.5522847,5 20,5.44771525 20,6 L20,18 C20,18.5522847 19.5522847,19 19,19 L5,19 C4.44771525,19 4,18.5522847 4,18 L4,6 L4,6 C4,5.44771525 4.44771525,5 5,5 L5,5 Z M19,14.123 L19,6 L5,6 L5,14.282 L7.19261538,12.63 C7.37784615,12.49 7.63846154,12.482 7.83553846,12.605 L9.68000031,13.8800001 L14.2744615,9.535 C14.3832308,9.435 14.5350769,9.374 14.6847692,9.391 C14.8376923,9.398 14.9787692,9.466 15.0746154,9.577 L19,14.123 Z M19,18 L19,15.722 L14.6093846,10.637 L10.1300001,14.778 C9.94584627,14.948 9.55430784,14.973 9.34000015,14.837 L7.55876923,13.642 L5,15.57 L5,18 L19,18 Z M8,9 C8,8.447 8.448,8 9,8 C9.552,8 10,8.447 10,9 C10,9.553 9.552,10 9,10 C8.448,10 8,9.553 8,9 Z"/>
</svg>
