<svg xmlns="http://www.w3.org/2000/svg" width="24" height="24" viewBox="0 0 24 24">
  <path d="M7,6 L17,6 C17.4893469,6 18,6.522 18,7 L18,17 C18,17.478 17.4893469,18 17,18 L7,18 C6.5116531,18 6,17.478 6,17 L6,7 C6,6.522 6.5116531,6 7,6 Z M16.7708168,16 L16.7708168,12.2109891 C16.7708168,11.3564819 16.3494008,10 14.5,10 C13.6343093,10 12.9171386,10.6957315 12.6797987,11.1460648 L12.6797987,10 L11,10 L11,16 L12.7708168,16 L12.7708168,13.4687182 C12.7708168,12.7213849 13.0736409,12 14,12 C14.9133587,12 15,12.551 15,13.215 L15,16 L16.7708168,16 Z M9,9 C9.56934915,9 10,8.57 10,8 C10,7.43033333 9.56934915,7 9,7 C8.42831745,7 8,7.43033333 8,8 C8,8.57 8.42831745,9 9,9 Z M8,16 L9.77081682,16 L9.77081682,10 L8,10 L8,16 Z"/>
</svg>
