<svg xmlns="http://www.w3.org/2000/svg" width="24" height="24" viewBox="0 0 24 24">
  <path d="M8.703,18.36825 C7.882,19.19025 6.451,19.18925 5.63,18.36825 C4.783,17.52125 4.783,16.14225 5.63,15.29525 L9.317,11.60825 C10.165,10.76025 11.543,10.76025 12.391,11.60825 L13.094,10.90425 C11.859,9.66925 9.849,9.66925 8.613,10.90425 L4.927,14.59125 C3.691,15.82625 3.691,17.83725 4.927,19.07225 C5.525,19.67025 6.32,20.00025 7.167,20.00025 C8.013,20.00025 8.809,19.67025 9.407,19.07225 L11.63,16.84925 L10.926,16.14625 L8.703,18.36825 Z M19,8.16625 C19,7.32025 18.671,6.52425 18.072,5.92625 C16.837,4.69125 14.826,4.69125 13.591,5.92625 L11.369,8.14925 L12.072,8.85325 L14.295,6.63025 C15.141,5.78325 16.52,5.78225 17.369,6.63025 C17.779,7.04125 18.005,7.58625 18.005,8.16625 C18.005,8.74725 17.779,9.29325 17.369,9.70325 L13.682,13.39125 C12.834,14.23825 11.456,14.23825 10.608,13.39125 L9.904,14.09425 C10.522,14.71125 11.333,15.02125 12.145,15.02125 C12.956,15.02125 13.768,14.71125 14.385,14.09425 L18.072,10.40725 C18.671,9.80825 19,9.01325 19,8.16625 L19,8.16625 Z"/>
</svg>
