<svg xmlns="http://www.w3.org/2000/svg" width="24" height="24" viewBox="0 0 24 24">
  <path d="M4,7.99942248 C4,6.34288718 5.33663106,5 7.00947762,5 L16.9905224,5 C18.652611,5 20,6.34435073 20,7.99942248 L20,17.0005775 C20,18.6571128 18.6633689,20 16.9905224,20 L7.00947762,20 C5.34738902,20 4,18.6556493 4,17.0005775 L4,7.99942248 Z M5,8.00276013 L5,16.9972399 C5,18.1064574 5.89805351,19 7.00585866,19 L16.9941413,19 C18.1029399,19 19,18.1033337 19,16.9972399 L19,8.00276013 C19,6.89354265 18.1019465,6 16.9941413,6 L7.00585866,6 C5.89706013,6 5,6.89666625 5,8.00276013 Z M9,9 L17,9 L17,10 L9,10 L9,9 Z M9,12 L17,12 L17,13 L9,13 L9,12 Z M9,15 L17,15 L17,16 L9,16 L9,15 Z M7,9 L8,9 L8,10 L7,10 L7,9 Z M7,12 L8,12 L8,13 L7,13 L7,12 Z M7,15 L8,15 L8,16 L7,16 L7,15 Z"/>
</svg>
