<svg xmlns="http://www.w3.org/2000/svg" width="24" height="24" viewBox="0 0 24 24">
  <path d="M12.5,20 C8.16666667,16.6666667 6,13.5 6,10.5 C6,6.91014913 8.91014913,4 12.5,4 C16.0898509,4 19,6.91014913 19,10.5 C19,13.5 16.8333333,16.6666667 12.5,20 Z M18,10.5 C18,7.46243388 15.5375661,5 12.5,5 C9.46243388,5 7,7.46243388 7,10.5 C7,12.9913563 8.8001189,15.7487322 12.5,18.7277004 C16.1998811,15.7487322 18,12.9913563 18,10.5 Z M12.5,14 C10.5670034,14 9,12.4329966 9,10.5 C9,8.56700338 10.5670034,7 12.5,7 C14.4329966,7 16,8.56700338 16,10.5 C16,12.4329966 14.4329966,14 12.5,14 Z M12.5,13 C13.8807119,13 15,11.8807119 15,10.5 C15,9.11928813 13.8807119,8 12.5,8 C11.1192881,8 10,9.11928813 10,10.5 C10,11.8807119 11.1192881,13 12.5,13 Z"/>
</svg>
