<svg xmlns="http://www.w3.org/2000/svg" width="24" height="24" viewBox="0 0 24 24">
  <path d="M19.462,19.49 C18.868,20.086 17.831,20.085 17.236,19.49 L11.23,13.485 L13.485,11.232 L19.492,17.238 C20.105,17.851 20.105,18.848 19.462,19.49 Z M8.483,10.738 L10.736,8.483 L12.744,10.49 L10.489,12.743 L8.483,10.738 Z M20.233,16.497 L10.736,7 L7,10.738 L16.494,20.231 C16.989,20.727 17.648,21 18.349,21 C19.05,21 19.709,20.726 20.233,20.202 C21.255,19.18 21.255,17.518 20.233,16.497 Z M5.886,5.114 L5.172,5.848 L6.776,7.5 L7.49,6.766 L5.886,5.114 Z M10,6 L11,6 L11,3 L10,3 L10,6 Z M3,10 L6,10 L6,9 L3,9 L3,10 Z M15.833,5.848 L15.119,5.114 L13.515,6.766 L14.229,7.5 L15.833,5.848 Z"/>
</svg>
