<svg xmlns="http://www.w3.org/2000/svg" width="24" height="24" viewBox="0 0 24 24">
  <path d="M8.82311702,7 L15.839083,7 C16.3805985,7 16.8311,6.54765946 16.8311,5.99408095 L16.8311,3.00591905 C16.8311,2.44215473 16.39026,2 15.839083,2 L8.82311702,2 C8.28160152,2 7.8311,2.45234054 7.8311,3.00591905 L7.8311,5.99408095 C7.8311,6.55784527 8.27194003,7 8.82311702,7 Z M8.82311702,8 C7.7229564,8 6.8311,7.11344516 6.8311,5.99408095 L6.8311,3.00591905 C6.8311,1.89808055 7.73127617,1 8.82311702,1 L15.839083,1 C16.9392436,1 17.8311,1.88655484 17.8311,3.00591905 L17.8311,5.99408095 C17.8311,7.10191945 16.9309238,8 15.839083,8 L8.82311702,8 Z M8.82311702,23 C7.7229564,23 6.8311,22.1134452 6.8311,20.9940809 L6.8311,18.0059191 C6.8311,16.8980806 7.73127617,16 8.82311702,16 L15.839083,16 C16.9392436,16 17.8311,16.8865548 17.8311,18.0059191 L17.8311,20.9940809 C17.8311,22.1019194 16.9309238,23 15.839083,23 L8.82311702,23 Z M2,12.5 L2,11.5 L22,11.5 L22,12.5 L2,12.5 Z"/>
</svg>
