<svg xmlns="http://www.w3.org/2000/svg" width="24" height="24" viewBox="0 0 24 24">
  <path d="M17,8.82311702 L17,15.839083 C17,16.3805985 17.4523405,16.8311 18.0059191,16.8311 L20.9940809,16.8311 C21.5578453,16.8311 22,16.39026 22,15.839083 L22,8.82311702 C22,8.28160152 21.5476595,7.8311 20.9940809,7.8311 L18.0059191,7.8311 C17.4421547,7.8311 17,8.27194003 17,8.82311702 Z M16,8.82311702 C16,7.7229564 16.8865548,6.8311 18.0059191,6.8311 L20.9940809,6.8311 C22.1019194,6.8311 23,7.73127617 23,8.82311702 L23,15.839083 C23,16.9392436 22.1134452,17.8311 20.9940809,17.8311 L18.0059191,17.8311 C16.8980806,17.8311 16,16.9309238 16,15.839083 L16,8.82311702 Z M1,8.82311702 C1,7.7229564 1.88655484,6.8311 3.00591905,6.8311 L5.99408095,6.8311 C7.10191945,6.8311 8,7.73127617 8,8.82311702 L8,15.839083 C8,16.9392436 7.11344516,17.8311 5.99408095,17.8311 L3.00591905,17.8311 C1.89808055,17.8311 1,16.9309238 1,15.839083 L1,8.82311702 Z M11.5,2 L12.5,2 L12.5,22 L11.5,22 L11.5,2 Z"/>
</svg>
