<svg xmlns="http://www.w3.org/2000/svg" xmlns:xlink="http://www.w3.org/1999/xlink" width="24" height="24" viewBox="0 0 24 24">
  <defs>
    <path id="mobile-a" d="M8,3 L16,3 C17.1045695,3 18,3.8954305 18,5 L18,19 C18,20.1045695 17.1045695,21 16,21 L8,21 C6.8954305,21 6,20.1045695 6,19 L6,5 C6,3.8954305 6.8954305,3 8,3 Z M8,4 C7.44771525,4 7,4.44771525 7,5 L7,19 C7,19.5522847 7.44771525,20 8,20 L16,20 C16.5522847,20 17,19.5522847 17,19 L17,5 C17,4.44771525 16.5522847,4 16,4 L8,4 Z M7,16 L17,16 L17,17 L7,17 L7,16 Z M11,18 L13,18 L13,19 L11,19 L11,18 Z M10,5 L14,5 L14,6 L10,6 L10,5 Z"/>
  </defs>
  <g fill-rule="evenodd">
    <use fill-rule="nonzero" xlink:href="#mobile-a"/>
  </g>
</svg>
