<svg xmlns="http://www.w3.org/2000/svg" width="24" height="24" viewBox="0 0 24 24">
  <path d="M19,5 L10,6.4 L10,15.5 C9.5,15.2 8.8,15 8,15 C6.3,15 5,15.9 5,17 C5,18.1 6.3,19 8,19 C9.7,19 11,18.1 11,17 L11,16.9 L11,7.3 L18,6.2 L18,14.5 C17.5,14.2 16.8,14 16,14 L16,14 C14.3,14 13,14.9 13,16 C13,17.1 14.3,18 16,18 C17.7,18 19,17.1 19,16 L19,16 L19,5 Z M8,18 C6.8,18 6,17.4 6,17 C6,16.6 6.8,16 8,16 C9.2,16 10,16.6 10,17 C10,17.4 9.2,18 8,18 Z M16,17 C14.8,17 14,16.4 14,16 C14,15.6 14.8,15 16,15 C17.2,15 18,15.6 18,16 C18,16.4 17.2,17 16,17 Z"/>
</svg>
