<svg xmlns="http://www.w3.org/2000/svg" width="24" height="24" viewBox="0 0 24 24">
  <path d="M9.5,7 L9.5,7 C10.3284271,7 11,7.67157288 11,8.5 L11,15.5 C11,16.3284271 10.3284271,17 9.5,17 C8.67157288,17 8,16.3284271 8,15.5 L8,8.5 L8,8.5 C8,7.67157288 8.67157288,7 9.5,7 L9.5,7 Z M9.5,8 C9.22385763,8 9,8.22385763 9,8.5 L9,15.5 C9,15.7761424 9.22385763,16 9.5,16 C9.77614237,16 10,15.7761424 10,15.5 L10,8.5 C10,8.22385763 9.77614237,8 9.5,8 Z M14.5,7 C15.3284271,7 16,7.67157288 16,8.5 L16,15.5 C16,16.3284271 15.3284271,17 14.5,17 C13.6715729,17 13,16.3284271 13,15.5 L13,8.5 L13,8.5 C13,7.67157288 13.6715729,7 14.5,7 Z M14.5,8 C14.2238576,8 14,8.22385763 14,8.5 L14,15.5 C14,15.7761424 14.2238576,16 14.5,16 C14.7761424,16 15,15.7761424 15,15.5 L15,8.5 C15,8.22385763 14.7761424,8 14.5,8 Z"/>
</svg>
