<svg xmlns="http://www.w3.org/2000/svg" width="24" height="24" viewBox="0 0 24 24">
  <path d="M8.64721867,5 C8.53521867,5 8.42021867,5.019 8.30921867,5.059 L5.66221867,6.008 C5.25721867,6.152 4.97921867,6.542 5.00121867,6.968 C5.11821867,9.092 5.76221867,11.063 6.79221867,12.78 C7.87421867,14.56 9.36721867,16.066 11.1532187,17.156 C12.8992187,18.215 14.9272187,18.869 17.0962187,18.998 C17.1152187,18.999 17.1332187,19 17.1522187,19 C17.5772187,19 17.9552187,18.709 18.0832187,18.303 L18.9562187,15.524 C19.1242187,14.99 18.8092187,14.425 18.2642187,14.279 L15.5172187,13.548 C15.4312187,13.525 15.3442187,13.514 15.2592187,13.514 C14.9412187,13.514 14.6362187,13.666 14.4472187,13.932 L13.6752187,15.018 L8.85321867,10.215 L9.94721867,9.393 C10.2682187,9.151 10.4112187,8.741 10.3072187,8.354 L9.60721867,5.733 C9.48821867,5.288 9.08421867,5 8.64721867,5 M8.64321867,6.002 L9.34621867,8.593 L8.25221867,9.416 C8.02021867,9.59 7.87621867,9.856 7.85521867,10.146 C7.83521867,10.435 7.94221867,10.719 8.14721867,10.924 L12.9692187,15.727 C13.1582187,15.914 13.4122187,16.018 13.6752187,16.018 C13.7032187,16.018 13.7312187,16.017 13.7592187,16.015 C14.0522187,15.989 14.3202187,15.837 14.4902187,15.598 L15.2592187,14.514 L18.0012187,15.225 L17.1562187,18 C15.2092187,17.885 13.3132187,17.297 11.6732187,16.303 C10.0412187,15.306 8.64821867,13.908 7.65021867,12.267 C6.65921867,10.615 6.10421867,8.814 6.00021867,6.949 L8.64321867,6.002"/>
</svg>
