<svg xmlns="http://www.w3.org/2000/svg" width="24" height="24" viewBox="0 0 24 24">
  <path d="M8.62132034,14.6213203 L9.32842712,15.3284271 L5.70710678,18.9497475 L5,18.2426407 L8.62132034,14.6213203 Z M14.5,3.75 L20.25,9.5 L19.6286797,10.1213203 L19.6286797,10.1213203 C19.0660705,10.6839295 18.3030088,11 17.5073593,11 L16.75,11 L15,12.75 L15,14.5 C15,16.0913249 14.3245871,17.6078716 13.1417646,18.6724118 L12.5,19.25 L4.75,11.4971067 L5.32651843,10.857272 L5.32651843,10.857272 C6.39181091,9.67498359 7.90856855,9 9.5,9 L9.5,9 L11.25,9 L13,7.25 L13,6.49264069 L13,6.49264069 C13,5.69699122 13.3160705,4.93392948 13.8786797,4.37132034 L14.5,3.75 Z M14,7.75 L11.75,10 L9.5,10 L9.45256242,10 L9.45256242,10 C8.21534601,10 7.04204664,10.549544 6.25,11.5 L6.25,11.5 L12.5,17.75 C13.450456,16.9579534 14,15.784654 14,14.5474376 L14,14.5 L14,12.25 L16.25,10 L17.5428932,10 C17.9956461,10 18.4298554,9.82014462 18.75,9.5 L14.5,5.25 L14.5,5.25 C14.1798554,5.57014462 14,6.00435391 14,6.45710678 L14,7.75 Z"/>
</svg>
