<svg xmlns="http://www.w3.org/2000/svg" width="24" height="24" viewBox="0 0 24 24">
  <path d="M8.47885213,6.80664662 L16.3905248,11.1221044 C16.8753731,11.3865672 17.054031,11.9940038 16.7895682,12.4788521 C16.6976229,12.6474186 16.5590913,12.7859502 16.3905248,12.8778956 L8.47885213,17.1933534 L8.47885213,17.1933534 C7.99400379,17.4578161 7.38656716,17.2791583 7.12210443,16.7943099 C7.04198337,16.6474213 7,16.4827768 7,16.3154578 L7,7.68454219 L7,7.68454219 C7,7.13225744 7.44771525,6.68454219 8,6.68454219 C8.16731899,6.68454219 8.33196353,6.72652556 8.47885213,6.80664662 L8.47885213,6.80664662 Z M8,7.75 L8,16.25 L16,12 L8,7.75 Z"/>
</svg>
