<svg xmlns="http://www.w3.org/2000/svg" width="24" height="24" viewBox="0 0 24 24">
  <path d="M17,18 L17,18.75 C17,19.9926407 16.1045695,21 15,21 L8,21 C6.8954305,21 6,19.9926407 6,18.75 L6,18 L4,18 C2.8954305,18 2,17.1045695 2,16 L2,7 C2,5.8954305 2.8954305,5 4,5 L6,5 C6,3.8954305 6.8954305,3 8,3 L15,3 C16.1045695,3 17,3.8954305 17,5 L19,5 C20.1045695,5 21,5.8954305 21,7 L21,16 C21,17.1045695 20.1045695,18 19,18 L17,18 Z M17,17 L19,17 C19.5522847,17 20,16.5522847 20,16 L20,7 C20,6.44771525 19.5522847,6 19,6 L4,6 C3.44771525,6 3,6.44771525 3,7 L3,16 C3,16.5522847 3.44771525,17 4,17 L6,17 L6,13 L5,13 L5,12 L18,12 L18,13 L17,13 L17,17 Z M8,4 C7.44771525,4 7,4.44771525 7,5 L16,5 C16,4.44771525 15.5522847,4 15,4 L8,4 Z M7,13 L7,18.8571429 C7,19.4883254 7.44771525,20 8,20 L15,20 C15.5522847,20 16,19.4883254 16,18.8571429 L16,13 L7,13 Z M9,15 L14,15 L14,16 L9,16 L9,15 Z M9,17 L14,17 L14,18 L9,18 L9,17 Z M14,8 L17,8 L17,9 L14,9 L14,8 Z"/>
</svg>
