<svg xmlns="http://www.w3.org/2000/svg" width="24" height="24" viewBox="0 0 24 24">
  <path d="M9.75,15 L9.00383135,15 L9.00383135,19 L6.00383135,19 C6.00383135,16.3333333 6.00383135,15 6.00383135,15 C6.0031934,15 6.00255545,15 6.00191751,15 L6.00191751,15 C5.44963276,15 5.00191751,14.5522847 5.00191751,14 C5.00191751,13.9993614 5.00191812,13.9987229 5.00191934,13.9980843 L5.00383135,13 L4.00383135,13 C3.4515466,13 3.00383135,12.5522847 3.00383135,12 L3.00383135,11 C3.00383135,10.4477153 3.4515466,10 4.00383135,10 L5.00383135,10 L5.00191934,9.00191567 L5.00191934,9.00191567 C5.00086135,8.44963193 5.4477181,8.00105983 6.00000184,8.00000183 C6.00064039,8.00000061 6.00127895,8 6.00191751,8 L9.75,8 L14,5 L15.0038313,5 L15.0038313,18 L14,18 L9.75,15 Z M4.00383135,11 L4.00383135,12 L5.00383135,12 L5.00383135,11 L4.00383135,11 Z M8.00383135,18 L8.00383135,15 L7.00383135,15 L7.00383135,18 L8.00383135,18 Z M6.00383135,9 L6.00383135,14 L9.00383135,14 L9.00383135,9 L6.00383135,9 Z M10.0038313,8.988 L10.0038313,14 L14,16.75 L14,6.25 L10.0038313,8.988 Z M18.7764728,5.58117085 C20.6780308,6.60430712 22,8.86970302 22,11.5 C22,14.130297 20.6780308,16.3956929 18.7764728,17.4188292 L18.4148627,16.4786431 C19.9425726,15.5993687 21,13.7006138 21,11.5 C21,9.29938622 19.9425726,7.40063128 18.4148627,6.5213569 L18.7764728,5.58117085 L18.7764728,5.58117085 Z M17.6854789,8.41775475 C18.468168,9.00902422 19,10.1675609 19,11.5 C19,12.8324391 18.468168,13.9909758 17.6854789,14.5822452 L17.3095984,13.6049558 C17.7248781,13.1603608 18,12.3837288 18,11.5 C18,10.6162712 17.7248781,9.83963924 17.3095984,9.39504416 L17.6854789,8.41775475 L17.6854789,8.41775475 Z"/>
</svg>
