<svg xmlns="http://www.w3.org/2000/svg" width="24" height="24" viewBox="0 0 24 24">
  <path d="M14.6025392,13.7997046 C14.5109929,13.7027973 14.4709573,13.5876566 14.4824325,13.4544175 C14.4938439,13.3211109 14.5452909,13.212048 14.6368372,13.1272288 C14.7283834,13.0424096 14.8312774,13 14.9457103,13 C15.0600794,13 15.1630371,13.0484199 15.2545196,13.1453947 L17.8970582,16.1990884 C18.0343139,16.392903 18.0343139,16.5989407 17.8970582,16.8170665 L15.2545196,19.8343609 C15.1630371,19.9313358 15.0600794,19.9858334 14.9457103,19.9979891 C14.8312774,20.0100772 14.7283834,19.9676676 14.6368372,19.8707603 C14.5452909,19.7737854 14.4938439,19.6647225 14.4824325,19.5435716 C14.4709573,19.422353 14.5109929,19.3132901 14.6025392,19.2163829 L16.5,16.9400001 L11.7166518,16.9400001 C10.3699999,16.9400001 8.70429628,16.4400571 7.64042125,15.307373 C6.57654621,14.1746265 6.04577315,13.142056 6,11.4374362 C6,11.3028116 6.04003557,11.1962494 6.12017045,11.1177496 C6.20024158,11.0392499 6.30319929,11 6.42904356,11 C6.55482409,11 6.6577818,11.0392499 6.73785293,11.1177496 C6.81792406,11.1962494 6.86943479,11.3028116 6.89225761,11.4374362 C6.91520794,12.8953692 7.36010853,13.7260029 8.27531647,14.7017499 C9.19046065,15.6774344 10.366854,16.0700002 11.7166518,16.0700002 L16.5,16.0700002 L14.6025392,13.7997046 Z M9.39746083,10.2002954 C9.48900713,10.2972027 9.52904269,10.4123434 9.51756753,10.5455825 C9.50615612,10.6788891 9.45470914,10.787952 9.36316285,10.8727712 C9.27161655,10.9575904 9.1687226,11 9.05428973,11 C8.93992061,11 8.83696291,10.9515801 8.74548037,10.8546053 L6.10294177,7.80091157 C5.96568608,7.607097 5.96568608,7.40105928 6.10294177,7.18293347 L8.74548037,4.16563906 C8.83696291,4.06866424 8.93992061,4.01416655 9.05428973,4.00201094 C9.1687226,3.98992285 9.27161655,4.03233245 9.36316285,4.12923973 C9.45470914,4.22621455 9.50615612,4.33527745 9.51756753,4.45642844 C9.52904269,4.57764696 9.48900713,4.68670986 9.39746083,4.78361715 L7.5,7.05999994 L12.2833482,7.05999994 C13.6300001,7.05999994 15.2957037,7.55994289 16.3595788,8.69262695 C17.4234538,9.82537351 17.9542269,10.857944 18,12.5625638 C18,12.6971884 17.9599644,12.8037506 17.8798296,12.8822504 C17.7997584,12.9607501 17.6968007,13 17.5709564,13 C17.4451759,13 17.3422182,12.9607501 17.2621471,12.8822504 C17.1820759,12.8037506 17.1305652,12.6971884 17.1077424,12.5625638 C17.0847921,11.1046308 16.6398915,10.2739971 15.7246835,9.29825011 C14.8095393,8.32256558 13.633146,7.92999983 12.2833482,7.92999983 L7.5,7.92999983 L9.39746083,10.2002954 Z"/>
</svg>
