<svg xmlns="http://www.w3.org/2000/svg" width="24" height="24" viewBox="0 0 24 24">
  <path d="M18,11.5 C18,7.91014913 15.0898509,5 11.5,5 C7.91014913,5 5,7.91014913 5,11.5 C5,15.0898509 7.91014913,18 11.5,18 C15.0898509,18 18,15.0898509 18,11.5 Z M4,11.5 C4,7.35786438 7.35786438,4 11.5,4 C15.6421356,4 19,7.35786438 19,11.5 C19,15.6421356 15.6421356,19 11.5,19 C7.35786438,19 4,15.6421356 4,11.5 Z M17.3535534,16.6464466 L21.3535534,20.6464466 L20.6464466,21.3535534 L16.6464466,17.3535534 L17.3535534,16.6464466 Z"/>
</svg>
