<svg xmlns="http://www.w3.org/2000/svg" width="24" height="24" viewBox="0 0 24 24">
  <path d="M8.75,16 L5.00101873,16 C4.44873398,16 4.00101873,15.5522847 4.00101873,15 L4.00611031,9.99898179 C4.00667224,9.44709492 4.45422263,9 5.00610979,9 L8.75,9 L13.0071275,6 L14.0071275,6 L14.0071275,19 L13,19 L8.75,16 Z M5.00712748,10 L5,15 L8,15 L8,10 L5.00712748,10 Z M15,14.2426407 L15.7071068,14.9497475 L17.4748737,13.1819805 L19.2426407,14.9497475 L19.9497475,14.2426407 L18.1819805,12.4748737 L19.9497475,10.7071068 L19.2426407,10 L17.4748737,11.767767 L15.7071068,10 L15,10.7071068 L16.767767,12.4748737 L15,14.2426407 Z M9,10 L9,15 L13,17.75 L13,7.25 L9,10 Z"/>
</svg>
