<svg xmlns="http://www.w3.org/2000/svg" width="24" height="24" viewBox="0 0 24 24">
  <path d="M8.75,16 L5.00101873,16 C4.44873398,16 4.00101873,15.5522847 4.00101873,15 L4.00101925,14.9989818 L4.00611031,9.99898179 C4.00667224,9.44709492 4.45422263,9 5.00610979,9 L8.75,9 L13.0071275,6 L14.0071275,6 L14.0071275,19 L13,19 L8.75,16 Z M5.00712748,10 L5,15 L8,15 L8,10 L5.00712748,10 Z M9,10 L9,15 L13,17.75 L13,7.25 L9,10 Z M17.7764728,6.58117085 C19.6780308,7.60430712 21,9.86970302 21,12.5 C21,15.130297 19.6780308,17.3956929 17.7764728,18.4188292 L17.4148627,17.4786431 C18.9425726,16.5993687 20,14.7006138 20,12.5 C20,10.2993862 18.9425726,8.40063128 17.4148627,7.5213569 L17.7764728,6.58117085 L17.7764728,6.58117085 Z M16.6854789,9.41775475 C17.468168,10.0090242 18,11.1675609 18,12.5 C18,13.8324391 17.468168,14.9909758 16.6854789,15.5822452 L16.3095984,14.6049558 C16.7248781,14.1603608 17,13.3837288 17,12.5 C17,11.6162712 16.7248781,10.8396392 16.3095984,10.3950442 L16.6854789,9.41775475 L16.6854789,9.41775475 Z"/>
</svg>
