<svg xmlns="http://www.w3.org/2000/svg" width="24" height="24" viewBox="0 0 24 24">
  <path d="M12.5,20 L7,20 C5.8954305,20 5,19.1045695 5,18 L5,8 L5,8 C5,6.8954305 5.8954305,6 7,6 L7,6 L8.08535285,6 C8.29127106,5.41740381 8.84689059,5 9.5,5 L12.5,5 C13.1531094,5 13.7087289,5.41740381 13.9146471,6 L15,6 C16.1045695,6 17,6.8954305 17,8 L17,10 C18.1045695,10 19,10.8954305 19,12 L19,18 C19,19.1045695 18.1045695,20 17,20 L12.5,20 Z M8.26756439,19 C8.09739429,18.7058266 8,18.3642871 8,18 L8,12 C8,10.8954305 8.8954305,10 10,10 L16,10 L16,8 C16,7.44771525 15.5522847,7 15,7 L13.9146471,7 C13.7087289,7.58259619 13.1531094,8 12.5,8 L9.5,8 C8.84689059,8 8.29127106,7.58259619 8.08535285,7 L7,7 L7,7 C6.44771525,7 6,7.44771525 6,8 L6,18 C6,18.5522847 6.44771525,19 7,19 L8.26756439,19 Z M9.5,6 C9.22385763,6 9,6.22385763 9,6.5 C9,6.77614237 9.22385763,7 9.5,7 L12.5,7 C12.7761424,7 13,6.77614237 13,6.5 C13,6.22385763 12.7761424,6 12.5,6 L9.5,6 Z M10,11 C9.44771525,11 9,11.4477153 9,12 L9,18 C9,18.5522847 9.44771525,19 10,19 L17,19 C17.5522847,19 18,18.5522847 18,18 L18,12 C18,11.4477153 17.5522847,11 17,11 L10,11 Z M11,16 L12,16 L12,18 L11,18 L11,16 Z M13,14 L14,14 L14,18 L13,18 L13,14 Z M15,12 L16,12 L16,18 L15,18 L15,12 Z"/>
</svg>
