<svg xmlns="http://www.w3.org/2000/svg" width="24" height="24" viewBox="0 0 24 24">
  <path d="M15,8 C14.447,8 14,8.448 14,9 C14,9.552 14.447,10 15,10 C15.552,10 16,9.552 16,9 C16,8.448 15.552,8 15,8 L15,8 Z M10.98125,18.858 C10.79625,19.043 10.47625,19.043 10.29025,18.858 L5.14225,13.68 C4.94925,13.486 4.94925,13.171 5.13725,12.982 L12.24125,6 L18.0043133,5.99789559 L18,11.793 L10.98125,18.858 Z M19,5 L11.86525,5 L4.43425,12.273 C3.85525,12.854 3.85525,13.802 4.43425,14.384 L9.58225,19.562 C9.86325,19.845 10.23725,20 10.63625,20 C11.03425,20 11.40825,19.845 11.69025,19.561 L19.00025,12.168 L19,5 Z"/>
</svg>
