<svg xmlns="http://www.w3.org/2000/svg" width="24" height="24" viewBox="0 0 24 24">
  <path d="M6,20 L6,18 C6,15.4353804 7.60905341,13.2465753 9.87270435,12.3880407 C8.74765126,11.68015 8,10.4273867 8,9 C8,6.790861 9.790861,5 12,5 C14.209139,5 16,6.790861 16,9 C16,10.4273867 15.2523487,11.68015 14.1272957,12.3880407 C14.8224852,12.6517051 15.4559354,13.040836 16,13.527787 L16,14 L14.9999794,14 C14.4185513,13.5632491 13.7388363,13.2502279 13,13.1 L13,11.829 C14.165,11.417 15,10.307 15,9 C15,7.343 13.657,6 12,6 C10.343,6 9,7.343 9,9 C9,10.307 9.835,11.417 11,11.829 L11,13.1 C8.718,13.564 7,15.581 7,18 L7,19 L11,19 L11,20 L6,20 Z M18.5858017,17.1213051 L15.1213051,20.5858017 C15.5165216,20.8475616 15.9904588,21 16.5,21 C17.8807119,21 19,19.8807119 19,18.5 C19,17.9904588 18.8475616,17.5165216 18.5858017,17.1213051 Z M17.8786949,16.4141983 C17.4834784,16.1524384 17.0095412,16 16.5,16 C15.1192881,16 14,17.1192881 14,18.5 C14,19.0095412 14.1524384,19.4834784 14.4141983,19.8786949 L17.8786949,16.4141983 Z M16.5,22 C14.5670034,22 13,20.4329966 13,18.5 C13,16.5670034 14.5670034,15 16.5,15 C18.4329966,15 20,16.5670034 20,18.5 C20,20.4329966 18.4329966,22 16.5,22 Z"/>
</svg>
