<svg xmlns="http://www.w3.org/2000/svg" width="24" height="24" viewBox="0 0 24 24">
  <path fill-rule="evenodd" d="M18,17 L18,20 L6,20 L6,17 C6,14.4353804 7.60905341,12.2465753 9.87270435,11.3880407 C8.74765126,10.68015 8,9.42738667 8,8 C8,5.790861 9.790861,4 12,4 C14.209139,4 16,5.790861 16,8 C16,9.42738667 15.2523487,10.68015 14.1272957,11.3880407 C16.3909466,12.2465753 18,14.4353804 18,17 Z M11,10.829 L11,12.1 C8.718,12.564 7,14.581 7,17 L7,19 L17,19 L17,17 C17,14.581 15.282,12.564 13,12.1 L13,10.829 C14.165,10.417 15,9.307 15,8 C15,6.343 13.657,5 12,5 C10.343,5 9,6.343 9,8 C9,9.307 9.835,10.417 11,10.829 Z"/>
</svg>
