<svg xmlns="http://www.w3.org/2000/svg" width="24" height="24" viewBox="0 0 24 24">
  <path d="M18,18 L18,20 L6,20 L6,18 C6,15.4353804 7.60905341,13.2465753 9.87270435,12.3880407 C8.74765126,11.68015 8,10.4273867 8,9 C8,6.790861 9.790861,5 12,5 C14.209139,5 16,6.790861 16,9 C16,10.4273867 15.2523487,11.68015 14.1272957,12.3880407 C16.3909466,13.2465753 18,15.4353804 18,18 Z M11,11.829 L11,13.1 C8.718,13.564 7,15.581 7,18 L7,19 L17,19 L17,18 C17,15.581 15.282,13.564 13,13.1 L13,11.829 C14.165,11.417 15,10.307 15,9 C15,7.343 13.657,6 12,6 C10.343,6 9,7.343 9,9 C9,10.307 9.835,11.417 11,11.829 Z"/>
</svg>
