<svg xmlns="http://www.w3.org/2000/svg" width="24" height="24" viewBox="0 0 24 24">
  <path d="M12,10 L8,10 C7.724,10 7.5,10.224 7.5,10.5 C7.5,10.776 7.724,11 8,11 L12,11 C12.276,11 12.5,10.776 12.5,10.5 C12.5,10.224 12.276,10 12,10 L12,10 Z M19,15.382 L15,13.5 L15,16 C15,16.553 14.553,17 14,17 L6,17 C5.447,17 5,16.553 5,16 L5,9 C5,8.447 5.447,8 6,8 L14,8 C14.553,8 15,8.447 15,9 L15,11.5 L19,9.618 L19,15.382 Z M16,10 L16,9 C16,7.896 15.104,7 14,7 L6,7 C4.896,7 4,7.896 4,9 L4,16 C4,17.104 4.896,18 6,18 L14,18 C15.104,18 16,17.104 16,16 L16,15 L20,17 L20,8 L16,10 Z"/>
</svg>
