<svg xmlns="http://www.w3.org/2000/svg" width="12" height="22" viewBox="0 0 12 22">
  <path d="M2,9 L9,9 C10.1045695,9 11,9.8954305 11,11 L11,16 C11,17.6568542 9.65685425,19 8,19 L3,19 C1.34314575,19 0,17.6568542 0,16 L0,11 C0,9.8954305 0.8954305,9 2,9 Z M2,10 C1.44771525,10 1,10.4477153 1,11 L1,16 C1,17.1045695 1.8954305,18 3,18 L8,18 C9.1045695,18 10,17.1045695 10,16 L10,11 C10,10.4477153 9.55228475,10 9,10 L2,10 Z M5.5,5 C7.43299662,5 9,6.56700338 9,8.5 L9,9 L2,9 L2,8.5 C2,6.56700338 3.56700338,5 5.5,5 Z M5.5,6 C4.11928813,6 3,7.11928813 3,8.5 L3,9 L8,9 L8,8.5 C8,7.11928813 6.88071187,6 5.5,6 Z M6,13 L7,13 L7,14 L6,14 L6,16 L5,16 L5,14 L4,14 L4,13 L5,13 L5,12 L6,12 L6,13 Z M6,0 L8,0 L8,2 L6,2 L6,0 Z M10,0 L12,0 L12,2 L10,2 L10,0 Z M10,5 L12,5 L12,7 L10,7 L10,5 Z M6,20 L8,20 L8,22 L6,22 L6,20 Z M10,20 L12,20 L12,22 L10,22 L10,20 Z"/>
</svg>
