<svg xmlns="http://www.w3.org/2000/svg" width="18" height="16" viewBox="0 0 18 16">
  <path d="M17.6762281,12.4439502 C18.3394859,13.5746099 17.9511638,15.0233988 16.8088864,15.6799109 C16.4440973,15.8895697 16.0297764,16 15.6079519,16 L2.3916543,16 C1.0707801,16 2.65526967e-16,14.9401105 0,13.6326705 C0,13.2151362 0.11156502,12.8050293 0.323378097,12.4439502 L6.93152689,1.17899911 C7.59478473,0.0483394554 9.05846025,-0.336033117 10.2007377,0.32047894 C10.560335,0.527153794 10.8592808,0.823059086 11.0680793,1.17899911 L17.6762281,12.4439502 Z M9,4 C8.44771525,4 8,4.44771525 8,5 L8,9 C8,9.55228475 8.44771525,10 9,10 C9.55228475,10 10,9.55228475 10,9 L10,5 C10,4.44771525 9.55228475,4 9,4 Z M9,12 C8.44771525,12 8,12.4477153 8,13 C8,13.5522847 8.44771525,14 9,14 C9.55228475,14 10,13.5522847 10,13 C10,12.4477153 9.55228475,12 9,12 Z"/>
</svg>
