<svg xmlns="http://www.w3.org/2000/svg" width="30" height="30" viewBox="0 0 30 30">
  <path d="M9.39223869,18.795 L11.0002387,20 L9.39223869,21.206 C8.95423869,21.54 8.87023869,22.168 9.20523869,22.607 C9.40223869,22.865 9.69923869,23 10.0012387,23 C10.2132387,23 10.4262387,22.934 10.6072387,22.795 L14.0002387,20 L10.6072387,17.206 C10.1672387,16.869 9.54023869,16.956 9.20523869,17.394 C8.87023869,17.832 8.95423869,18.46 9.39223869,18.795 Z M19.0002387,23 L21.0002387,23 L21.0002387,9 L19.0002387,9 L19.0002387,23 Z M14.6952387,15 L16.0002387,15 L16.0002387,23 L18.0002387,23 L18.0002387,9 L14.6952387,9 C12.8782387,9 11.4042387,10.183 11.4042387,12 C11.4042387,13.818 12.8782387,15 14.6952387,15 Z"/>
</svg>
