<svg xmlns="http://www.w3.org/2000/svg" width="30" height="30" viewBox="0 0 30 30">
  <path d="M10.9966313,15 L14.9898939,15 C15.5888833,15 16.9865252,15 16.9865252,13 C16.9865252,11.1 15.7885464,11 14.9898939,11 L10.9966313,11 L10.9966313,15 Z M10.9966313,17 L10.9966313,21 L15.9882095,21 C17.0863568,21 17.9848408,20.5 17.9848408,19 C17.9848408,17.5 17.0863568,17 15.9882095,17 L10.9966313,17 Z M10.9966313,23 C10.4974735,23 9,23 9,23 C9,23 9,21.6 9,21 L9,11 C9,10.5 9,9 9,9 C9,9 10.3976419,9 10.9966313,9 L14.8900623,9 C16.3875358,9 17.485683,9.6 18.2843355,10.8 C19.082988,12 19.1828196,13.6 18.4839987,14.9 C18.3841671,15.2 18.184504,15.4 17.9848408,15.6 C19.082988,16.2 19.8816406,17.3 19.9814721,18.5 C20.0813037,19.7 19.781809,20.7 18.9831565,21.6 C18.184504,22.5 16.9865252,23 15.7885464,23 L10.9966313,23 Z"/>
</svg>
