<svg xmlns="http://www.w3.org/2000/svg" width="30" height="30" viewBox="0 0 30 30">
  <path d="M10.291,15 L12,15 L12,23 L14,23 L14,9 L10.291,9 C8.474,9 7,10.182 7,12 C7,13.818 8.474,15 10.291,15 Z M15,23 L15,9 L17,9 L17,23 L15,23 Z M23.608,18.795 L22,20 L23.608,21.206 C24.046,21.54 24.13,22.168 23.795,22.607 C23.598,22.865 23.301,23 22.999,23 C22.787,23 22.574,22.934 22.393,22.795 L19,20 L22.393,17.206 C22.833,16.869 23.46,16.956 23.795,17.394 C24.13,17.832 24.046,18.46 23.608,18.795 Z"/>
</svg>
