<svg xmlns="http://www.w3.org/2000/svg" width="30" height="30" viewBox="0 0 30 30">
  <path d="M11.2,20.7 C10.4,21.5 9.1,21.5 8.3,20.7 C7.5,19.9 7.5,18.6 8.3,17.8 L11.6,14.5 C12.4,13.7 13.7,13.7 14.5,14.5 C14.8,14.8 15.4,14.8 15.7,14.5 C16,14.2 16,13.6 15.7,13.3 C14.2,11.8 11.8,11.8 10.4,13.3 L7.1,16.6 C6.4,17.3 6,18.2 6,19.2 C6,20.2 6.4,21.2 7.1,21.9 C7.8,22.6 8.8,23 9.8,23 C10.8,23 11.7,22.6 12.5,21.9 L14.2,20.2 C14.5,19.9 14.5,19.3 14.2,19 C13.8,18.7 13.2,18.7 12.9,19 L11.2,20.7 Z M15.6,8.1 L13.9,9.8 C13.6,10.1 13.6,10.7 13.9,11 C14.2,11.3 14.8,11.3 15.1,11 L16.8,9.3 C17.6,8.5 18.9,8.5 19.7,9.3 C20.5,10.1 20.5,11.4 19.7,12.2 L16.4,15.5 C15.6,16.3 14.3,16.3 13.5,15.5 C13.2,15.2 12.6,15.2 12.3,15.5 C12,15.8 12,16.4 12.3,16.7 C13,17.4 14,17.8 15,17.8 C16,17.8 16.9,17.4 17.7,16.7 L21,13.4 C22.4,12 22.4,9.6 20.9,8.1 C19.4,6.6 17,6.6 15.6,8.1 Z"/>
</svg>
