<svg xmlns="http://www.w3.org/2000/svg" width="30" height="30" viewBox="0 0 30 30">
  <path d="M8.66,14 L10.722,9.352 L12.589,14 L8.66,14 Z M9.043,8.177 L4,20 L6,20 L7.773,16 L13.392,16 L14.5,19 L15,15.003 L12.401,8.178 C12.101,7.452 11.458,7 10.723,7 C9.986,7 9.343,7.451 9.043,8.177 Z M17,20 C17,17.156 20.958,10.958 20.958,10.958 C20.958,10.958 25,17.156 25,20 C25,21.49 23.892,24 20.958,24 C18.024,24 17,21.49 17,20 Z M20.949,9.078 L20.115,10.384 C19.694,11.043 16,16.952 16,20 C16,21.917 17.346,25 20.958,25 C24.435,25 26,22.059 26,20 C26,16.947 22.226,11.036 21.796,10.376 L20.949,9.078 Z"/>
</svg>
